# xmcd
#
# Track frame offsets:
#	150
#	26015
#	45835
#	64860
#
# Disc length: 1118 seconds
#
# Revision: 0
# Processed by: cddbd v1.5.1PL0 Copyright (c) Steve Scherf et al.
# Submitted via: EasyCDDAExtractor 8.0.2.1
#
DISCID=29045c04
DTITLE=Paul Anton - We've Got It [CD Single)
DYEAR=1997
DGENRE=R&B
TTITLE0=We've Got It (feat Erica From Imaage) (The Siam Remix)
TTITLE1=We've Got It (Original Version)
TTITLE2=We've Got It (Phat Boy Remix)
TTITLE3=We've Got It (Full Pack Remix)
EXTD=
EXTT0=
EXTT1=
EXTT2=
EXTT3=
PLAYORDER=
